<svg xmlns="http://www.w3.org/2000/svg" xmlns:xlink="http://www.w3.org/1999/xlink" viewBox="0 0 456.62 80.78"><defs><style>.cls-1{font-size:36px;fill:#2c3d55;font-family:HelveticaRoundedLTStd-Bd, Helvetica Rounded LT Std;}.cls-2{fill:url(#Dégradé_sans_nom_11);}</style><linearGradient id="Dégradé_sans_nom_11" y1="39.53" x2="184.29" y2="39.53" gradientUnits="userSpaceOnUse"><stop offset="0" stop-color="#7e4f9a"/><stop offset="1" stop-color="#d81e5c"/></linearGradient></defs><g id="Calque_2" data-name="Calque 2"><g id="Calque_1-2" data-name="Calque 1"><text class="cls-1" transform="translate(233.93 29.88)">Ensicaen<tspan x="0" y="43.2">Mission Lab.</tspan></text><path class="cls-2" d="M130.43,60.79A2.84,2.84,0,0,1,127.6,58v-51a2.84,2.84,0,0,0-2.83-2.84H2.83A2.84,2.84,0,0,0,0,6.93v8.5a2.84,2.84,0,0,0,2.83,2.84h51a2.83,2.83,0,0,1,2.83,2.83v8.51a2.83,2.83,0,0,1-2.83,2.83h-51A2.83,2.83,0,0,0,0,35.27v8.51a2.83,2.83,0,0,0,2.83,2.83h51a2.84,2.84,0,0,1,2.83,2.84V58a2.84,2.84,0,0,1-2.83,2.84h-51A2.83,2.83,0,0,0,0,63.62v8.51A2.83,2.83,0,0,0,2.83,75H68a2.84,2.84,0,0,0,2.84-2.83v-51a2.83,2.83,0,0,1,2.83-2.83h8.55a2.83,2.83,0,0,1,2.83,2.83v51A2.83,2.83,0,0,0,87.91,75h8.51a2.83,2.83,0,0,0,2.83-2.83v-51a2.84,2.84,0,0,1,2.84-2.83h8.5a2.84,2.84,0,0,1,2.84,2.83v51A2.83,2.83,0,0,0,116.26,75h65.2a2.83,2.83,0,0,0,2.83-2.83V63.62a2.83,2.83,0,0,0-2.83-2.83Z"/></g></g></svg>