<?xml version="1.0" encoding="utf-8"?>
<!-- Generator: Adobe Illustrator 26.3.1, SVG Export Plug-In . SVG Version: 6.00 Build 0)  -->
<svg version="1.1" id="Calque_1" xmlns="http://www.w3.org/2000/svg" xmlns:xlink="http://www.w3.org/1999/xlink" x="0px" y="0px"
	 viewBox="0 0 1280 1280" style="enable-background:new 0 0 1280 1280;" xml:space="preserve">
<style type="text/css">
	.st0{fill:#1A2B6D;}
</style>
<g transform="translate(0.000000,1280.000000) scale(0.100000,-0.100000)">
	<path class="st0" d="M6235,12720c-685-101-1290-1201-1633-2970c-22-113-48-254-57-315c-10-60-21-114-25-118c-5-5-86,19-181,53
		c-714,257-1457,455-2019,539c-480,72-939,80-1243,21c-133-26-308-87-402-141c-148-83-269-229-318-384c-18-57-22-93-22-195
		c1-134,23-242,81-388c247-622,1010-1436,2126-2266l187-139l-189-143c-778-588-1374-1153-1752-1661c-237-318-381-601-433-851
		c-20-96-19-267,1-346c116-452,665-641,1594-550c644,63,1486,273,2390,597c85,30,161,57,169,59c10,2,20-39,42-167
		c286-1688,814-2852,1434-3160c136-68,232-89,380-82c174,7,301,55,460,175c501,373,925,1313,1190,2637c29,149,66,348,81,443
		c15,94,31,172,35,172c5,0,63-21,131-46s256-90,418-145c1548-519,2728-643,3294-346c94,49,226,172,270,252c170,309,76,726-282,1250
		c-369,541-1055,1209-1852,1805c-69,51-129,96-133,100s89,80,207,169c722,543,1323,1107,1692,1586c311,406,475,769,476,1060
		c0,181-47,309-156,424c-332,349-1104,411-2248,180c-442-89-925-224-1501-419c-165-56-301-99-303-97c-3,2-18,82-34,178
		c-204,1179-533,2120-948,2704c-86,121-290,322-396,391C6589,12700,6409,12746,6235,12720z M6519,12427c97-34,205-103,300-193
		c348-328,666-1050,880-2002c93-411,194-1003,176-1021c-6-5-181-78-390-161c-436-175-728-299-968-410l-168-78l-112,53
		c-276,130-786,347-1229,524c-176,70-208,86-208,104c0,38,70,442,120,687c108,537,233,978,392,1382c257,656,578,1060,902,1134
		C6301,12466,6430,12458,6519,12427z M11428,9734c342-50,562-190,631-402c28-84,29-229,1-335c-114-446-619-1058-1436-1738
		c-258-215-817-642-879-671c-18-8-50,11-205,122c-314,224-676,459-1065,692l-140,84l-7,95c-3,52-11,186-18,299
		c-18,340-52,655-107,1013c-14,92-23,170-20,173c19,19,621,224,952,324c705,213,1329,338,1810,364C11067,9760,11321,9750,11428,9734
		z M2115,9702c421-56,848-149,1363-298c309-89,999-318,1019-338c3-3-4-56-15-118c-60-323-100-698-135-1278l-12-194l-220-135
		c-121-74-431-276-689-449c-257-172-474-311-481-308c-34,13-452,325-685,512C1322,7846,741,8538,644,9019c-77,386,157,629,673,700
		C1435,9736,1944,9724,2115,9702z M4950,8888c273-103,629-258,944-411l148-72l-108-44c-140-56-408-190-599-299
		c-82-47-253-142-380-212c-126-70-251-140-277-155l-48-27v34c0,171,91,1056,126,1221C4763,8958,4763,8958,4950,8888z M7904,8942
		c9-16,56-299,76-462c27-222,67-810,56-810c-3,0-55,31-115,69c-261,165-870,490-1154,617l-109,48l64,32c165,82,1138,511,1165,513
		C7893,8950,7901,8946,7904,8942z M6789,8023c355-180,922-489,1202-655l66-39l7-63c29-283,34-871,11-1299c-8-155-16-324-18-376
		l-2-93l-144-90c-249-157-741-424-1168-635l-412-204l-448,225c-456,229-824,428-1103,597l-155,94l-12,75c-30,196-37,375-37,885
		c1,460,11,753,30,860c5,27,28,43,242,167c425,246,879,487,1202,638c118,55,229,107,245,114c17,8,38,15,49,15
		C6354,8240,6554,8143,6789,8023z M4287,6788c-8-263-8-486,0-740c6-200,9-364,8-366c-7-8-516,315-868,551c-216,145-266,182-255,192
		c73,68,1113,755,1123,743C4297,7166,4293,6995,4287,6788z M8528,7073c266-163,949-624,967-652c6-11-63-63-292-219
		c-182-123-836-544-838-539c-1,1,3,74,8,162c10,184,3,1301-8,1328c-4,9-4,17-1,17C8368,7170,8441,7127,8528,7073z M3415,5931
		c211-141,516-327,790-483l130-74l7-179c15-390,61-882,114-1225c14-91,26-174,27-184c2-24-83-58-508-201
		c-1502-506-2625-635-3095-356c-173,103-259,267-247,471c32,556,780,1407,2115,2407l203,152l122-91C3140,6118,3294,6012,3415,5931z
		 M9905,6132c1449-1059,2252-2007,2175-2570c-58-427-578-586-1490-456c-586,83-1341,292-2174,601l-238,88l6,40c3,22,17,111,30,198
		c51,318,86,687,107,1092c6,121,11,220,12,221c1,0,94,56,207,124c377,226,844,534,1105,729C9738,6268,9707,6276,9905,6132z
		 M5040,4928c96-52,272-147,390-211c212-115,445-227,548-263c28-10,52-21,52-25c0-8-365-184-571-275c-264-116-685-281-694-272
		c-13,12-73,445-95,678c-11,120-30,467-30,557v53l113-74C4814,5055,4944,4980,5040,4928z M8030,4984c-12-204-33-441-55-624
		c-23-190-66-464-75-473c-8-9-251,79-472,172c-321,133-803,360-791,372c4,4,64,31,133,60c265,112,918,454,1157,606
		c59,39,109,69,111,68C8039,5164,8036,5082,8030,4984z M6588,4172c364-182,704-329,1187-514l90-34l-3-34c-7-76-76-496-113-690
		c-187-962-459-1703-779-2129c-80-105-231-249-316-299c-465-277-922,46-1302,918c-211,486-400,1189-533,1979c-21,129-39,239-39,245
		s35,24,78,40c175,66,698,278,842,342c85,37,261,121,390,185c129,65,236,118,238,118C6330,4300,6447,4242,6588,4172z"/>
	<path class="st0" d="M6165,7045c-272-60-468-253-521-515c-30-148,5-325,90-453c86-130,246-241,406-284c102-28,303-25,400,6
		c250,77,417,246,476,481c24,93,15,241-19,338c-72,207-252,365-481,422C6423,7063,6259,7066,6165,7045z"/>
</g>
</svg>
