<?xml version="1.0" encoding="utf-8"?>
<!-- Generator: Adobe Illustrator 26.3.1, SVG Export Plug-In . SVG Version: 6.00 Build 0)  -->
<svg version="1.1" id="Calque_1" xmlns="http://www.w3.org/2000/svg" xmlns:xlink="http://www.w3.org/1999/xlink" x="0px" y="0px"
	 viewBox="0 0 1000 1000" style="enable-background:new 0 0 1000 1000;" xml:space="preserve">
<style type="text/css">
	.st0{fill:#1A2B6D;}
</style>
<g>
	<g transform="translate(0.000000,511.000000) scale(0.100000,-0.100000)">
		<path class="st0" d="M1793.5,4978.7c-121-52.1-131.4-100.1-131.4-625.7v-469.2h-158.5c-146,0-162.7-4.2-219-60.5
			s-60.5-73-60.5-219v-158.5H750.7c-431.7,0-481.8-4.2-540.2-39.6c-85.5-52.1-127.2-166.8-91.8-252.4
			c54.2-133.5,60.5-135.6,602.7-146l492.2-10.4v-219v-219L719.3,2549c-483.8-10.4-494.3-10.4-546.4-60.5
			c-68.8-64.7-85.5-146-45.9-237.7c54.2-129.3,95.9-139.7,627.8-139.7H1224v-219v-219H763.2c-517.2,0-573.5-12.5-631.9-135.6
			c-41.7-85.5-41.7-102.2,0-187.7c58.4-123,114.7-135.6,631.9-135.6h460.9v-219v-219H754.9c-531.8,0-573.5-10.4-627.8-139.7
			c-39.6-91.8-22.9-173.1,45.9-237.7c52.1-50.1,62.6-50.1,546.4-60.5l494.3-10.4V109v-219l-494.3-10.4
			c-483.8-10.4-494.3-10.4-546.4-60.5c-68.8-64.6-85.5-146-45.9-237.7C181.3-548,223-558.4,754.9-558.4h469.2v-219v-219H763.2
			c-517.2,0-573.5-12.5-631.9-135.6c-41.7-85.5-41.7-102.2,0-187.7c58.4-123.1,114.7-135.6,631.9-135.6h460.9v-219v-219H754.9
			c-531.8,0-573.5-10.4-627.8-139.7c-39.6-91.8-22.9-173.1,45.9-237.7c52.1-50.1,62.6-50.1,546.4-60.5l494.3-10.4v-219v-219
			L719.4-2790c-483.8-10.4-494.3-10.4-546.4-60.5c-68.8-64.6-85.5-146-45.9-237.7c54.2-129.3,95.9-139.7,627.8-139.7h469.2v-158.5
			c0-146,4.2-162.7,60.5-219s73-60.5,219-60.5h158.5v-473.4c0-431.7,4.2-481.7,39.6-540.1c52.1-85.5,166.8-127.2,252.4-91.8
			c133.5,54.2,135.6,60.5,146,602.7l10.4,492.2h219h219l10.4-492.2c10.4-542.2,12.5-548.5,146-602.7c85.5-35.5,200.2,6.3,252.4,91.8
			c35.4,58.4,39.6,108.4,39.6,540.1v473.4h219h219v-460.9c0-517.2,12.5-573.5,135.6-631.9c85.5-41.7,102.2-41.7,187.7,0
			c123,58.4,135.6,114.7,135.6,631.9v460.9h219h219v-469.2c0-529.7,10.4-573.5,139.7-627.7c85.5-37.6,185.6-12.5,248.2,56.3
			c35.4,39.6,39.6,93.9,50.1,538.1l10.4,492.2h219h219l10.4-492.2c10.4-444.2,14.6-498.5,50.1-538.1
			c62.6-68.8,162.7-93.8,248.2-56.3c129.3,54.2,139.7,98,139.7,627.7v469.2h219h219v-460.9c0-517.2,12.5-573.5,135.6-631.9
			c85.5-41.7,102.2-41.7,187.7,0c123,58.4,135.6,114.7,135.6,631.9v460.9h219h219v-469.2c0-529.7,10.4-573.5,139.7-627.7
			c85.5-37.6,185.6-12.5,248.2,56.3c35.5,39.6,39.6,93.9,50.1,538.1l10.4,492.2h219h219l10.4-492.2
			c10.4-444.2,14.6-498.5,50.1-538.1c62.6-68.8,162.7-93.8,248.2-56.3c129.3,54.2,139.7,98,139.7,627.7v469.2h158.5
			c146,0,162.7,4.2,219,60.5s60.5,73,60.5,219v158.5H9243c529.7,0,573.5,10.4,627.8,139.7c37.6,85.5,12.5,185.6-56.3,248.2
			c-39.6,35.5-93.8,39.6-538.1,50.1l-492.2,10.4v219v219l492.2,10.4c444.2,10.4,498.5,14.6,538.1,50.1
			c68.8,62.6,93.9,162.7,56.3,248.2c-54.2,129.3-98,139.7-627.8,139.7h-469.2v219v219h460.9c517.2,0,573.5,12.5,631.9,135.6
			c41.7,85.5,41.7,102.2,0,187.7c-58.4,123.1-114.7,135.6-631.9,135.6h-460.9v219v219H9243c529.7,0,573.5,10.4,627.8,139.7
			c37.6,85.5,12.5,185.6-56.3,248.2c-39.6,35.5-93.8,39.6-538.1,50.1L8784.2-110v219v219l492.2,10.4c444.2,10.4,498.5,14.6,538.1,50
			c68.8,62.6,93.9,162.7,56.3,248.2c-54.2,129.3-98,139.7-627.8,139.7h-469.2v219v219h460.9c517.2,0,573.5,12.5,631.9,135.6
			c18.8,37.5,33.4,79.2,33.4,93.9s-14.6,56.3-33.4,93.9c-58.4,123-114.7,135.6-631.9,135.6h-460.9v219v219h475.5
			c429.6,0,479.7,4.2,538.1,39.6c85.5,52.1,127.2,166.8,91.8,252.4c-54.2,133.5-60.5,135.6-602.7,146l-492.2,10.4v219v219
			l492.2,10.4c542.2,10.4,548.5,12.5,602.7,146c35.5,85.5-6.3,200.2-91.8,252.4c-58.4,35.4-108.4,39.6-538.1,39.6h-475.5v158.5
			c0,146-4.2,162.7-60.5,219s-73,60.5-219,60.5h-158.5v469.2c0,531.8-10.4,573.5-139.7,627.8c-91.7,39.6-173.1,22.9-237.7-45.9
			c-50.1-52.1-50.1-62.6-60.5-546.4l-10.4-494.3h-219h-219l-10.4,494.3c-10.4,483.8-10.4,494.3-60.5,546.4
			c-64.6,68.8-146,85.5-237.7,45.9c-129.3-54.2-139.7-95.9-139.7-627.8v-469.2h-219h-219V4345c0,517.2-12.5,573.5-135.6,631.9
			c-85.5,41.7-102.2,41.7-187.7,0c-123.1-58.4-135.6-114.7-135.6-631.9v-460.9h-219h-219v469.2c0,531.8-10.4,573.5-139.7,627.8
			c-91.7,39.6-173.1,22.9-237.7-45.9c-50.1-52.1-50.1-62.6-60.5-546.4l-10.4-494.3h-219h-219l-10.4,494.3
			c-10.4,483.8-10.4,494.3-60.5,546.4c-64.7,68.8-146,85.5-237.8,45.9c-129.3-54.2-139.7-95.9-139.7-627.8v-469.2h-219h-219V4345
			c0,517.2-12.5,573.5-135.6,631.9c-37.5,18.8-79.2,33.4-93.8,33.4s-56.3-14.6-93.9-33.4c-123-58.4-135.6-114.7-135.6-631.9v-460.9
			h-219h-219v469.2c0,531.8-10.4,573.5-139.7,627.8c-91.8,39.6-173.1,22.9-237.7-45.9c-50.1-52.1-50.1-62.6-60.5-546.4l-10.4-494.3
			h-219h-219l-10.4,492.2c-10.4,529.7-12.5,533.9-127.2,594.4C1901.9,5016.3,1879,5016.3,1793.5,4978.7z M8335.8,109v-3336.9H4999
			H1662.1V109v3336.9H4999h3336.9V109H8335.8z"/>
		<path class="st0" d="M2619.3,2488.6l-60.5-60.5V109v-2319.1l60.5-60.5l60.5-60.5H4999h2319.1l60.5,60.5l60.5,60.5V109v2319.1
			l-60.5,60.5l-60.5,60.5H4999H2679.8L2619.3,2488.6z M7001.1,109v-2002.1H4999H2996.8V109v2002.1H4999h2002.1V109z"/>
	</g>
</g>
</svg>
